<svg xmlns="http://www.w3.org/2000/svg" width="1200" height="552" viewBox="0 0 1200 552">
  <rect width="100%" height="100%" fill="white"/>
  <text x="10" y="35" font-size="24" font-family="Arial, sans-serif" font-weight="700">CSL category distribution</text>
  <g font-family="Arial, sans-serif" fill="#111827">
    <text x="10" y="88" font-size="14">工学</text><rect x="180" y="70" width="960.00" height="26" fill="#3b82f6"/><text x="1148.00" y="88" font-size="13">177,426 (44.8%)</text><text x="10" y="122" font-size="14">农学</text><rect x="180" y="104" width="213.87" height="26" fill="#3b82f6"/><text x="401.87" y="122" font-size="13">39,528 (10.0%)</text><text x="10" y="156" font-size="14">医学</text><rect x="180" y="138" width="198.95" height="26" fill="#3b82f6"/><text x="386.95" y="156" font-size="13">36,769 (9.3%)</text><text x="10" y="190" font-size="14">理学</text><rect x="180" y="172" width="193.42" height="26" fill="#3b82f6"/><text x="381.42" y="190" font-size="13">35,748 (9.0%)</text><text x="10" y="224" font-size="14">管理学</text><rect x="180" y="206" width="127.83" height="26" fill="#3b82f6"/><text x="315.83" y="224" font-size="13">23,626 (6.0%)</text><text x="10" y="258" font-size="14">法学</text><rect x="180" y="240" width="116.58" height="26" fill="#3b82f6"/><text x="304.58" y="258" font-size="13">21,547 (5.4%)</text><text x="10" y="292" font-size="14">教育学</text><rect x="180" y="274" width="90.35" height="26" fill="#3b82f6"/><text x="278.35" y="292" font-size="13">16,698 (4.2%)</text><text x="10" y="326" font-size="14">经济学</text><rect x="180" y="308" width="62.53" height="26" fill="#3b82f6"/><text x="250.53" y="326" font-size="13">11,556 (2.9%)</text><text x="10" y="360" font-size="14">文学</text><rect x="180" y="342" width="56.80" height="26" fill="#3b82f6"/><text x="244.80" y="360" font-size="13">10,498 (2.7%)</text><text x="10" y="394" font-size="14">哲学</text><rect x="180" y="376" width="40.62" height="26" fill="#3b82f6"/><text x="228.62" y="394" font-size="13">7,508 (1.9%)</text><text x="10" y="428" font-size="14">历史学</text><rect x="180" y="410" width="33.93" height="26" fill="#3b82f6"/><text x="221.93" y="428" font-size="13">6,270 (1.6%)</text><text x="10" y="462" font-size="14">艺术学</text><rect x="180" y="444" width="28.14" height="26" fill="#3b82f6"/><text x="216.14" y="462" font-size="13">5,201 (1.3%)</text><text x="10" y="496" font-size="14">军事学</text><rect x="180" y="478" width="19.22" height="26" fill="#3b82f6"/><text x="207.22" y="496" font-size="13">3,552 (0.9%)</text>
  </g>
</svg>
