<svg xmlns="http://www.w3.org/2000/svg" width="1200" height="1130" viewBox="0 0 1200 1130">
  <rect width="100%" height="100%" fill="white"/>
  <text x="10" y="35" font-size="24" font-family="Arial, sans-serif" font-weight="700">CSL top 30 discipline distribution</text>
  <g font-family="Arial, sans-serif" fill="#111827">
    <text x="10" y="88" font-size="14">食品科学与工程</text><rect x="260" y="70" width="880.00" height="26" fill="#3b82f6"/><text x="1148.00" y="88" font-size="13">13,293 (5.5%)</text><text x="10" y="122" font-size="14">园艺学</text><rect x="260" y="104" width="842.46" height="26" fill="#3b82f6"/><text x="1110.46" y="122" font-size="13">12,726 (5.3%)</text><text x="10" y="156" font-size="14">中医学/中药学</text><rect x="260" y="138" width="745.02" height="26" fill="#3b82f6"/><text x="1013.02" y="156" font-size="13">11,254 (4.7%)</text><text x="10" y="190" font-size="14">材料科学与工程</text><rect x="260" y="172" width="633.34" height="26" fill="#3b82f6"/><text x="901.34" y="190" font-size="13">9,567 (4.0%)</text><text x="10" y="224" font-size="14">基础医学/临床医学</text><rect x="260" y="206" width="628.90" height="26" fill="#3b82f6"/><text x="896.90" y="224" font-size="13">9,500 (3.9%)</text><text x="10" y="258" font-size="14">体育学</text><rect x="260" y="240" width="620.43" height="26" fill="#3b82f6"/><text x="888.43" y="258" font-size="13">9,372 (3.9%)</text><text x="10" y="292" font-size="14">交通运输工程</text><rect x="260" y="274" width="620.43" height="26" fill="#3b82f6"/><text x="888.43" y="292" font-size="13">9,372 (3.9%)</text><text x="10" y="326" font-size="14">矿业工程</text><rect x="260" y="308" width="598.52" height="26" fill="#3b82f6"/><text x="866.52" y="326" font-size="13">9,041 (3.7%)</text><text x="10" y="360" font-size="14">化学/化学工程与技术</text><rect x="260" y="342" width="589.78" height="26" fill="#3b82f6"/><text x="857.78" y="360" font-size="13">8,909 (3.7%)</text><text x="10" y="394" font-size="14">农业工程</text><rect x="260" y="376" width="515.17" height="26" fill="#3b82f6"/><text x="783.17" y="394" font-size="13">7,782 (3.2%)</text><text x="10" y="428" font-size="14">计算机科学与技术</text><rect x="260" y="410" width="512.65" height="26" fill="#3b82f6"/><text x="780.65" y="428" font-size="13">7,744 (3.2%)</text><text x="10" y="462" font-size="14">新闻传播学</text><rect x="260" y="444" width="508.88" height="26" fill="#3b82f6"/><text x="776.88" y="462" font-size="13">7,687 (3.2%)</text><text x="10" y="496" font-size="14">力学</text><rect x="260" y="478" width="507.76" height="26" fill="#3b82f6"/><text x="775.76" y="496" font-size="13">7,670 (3.2%)</text><text x="10" y="530" font-size="14">水产</text><rect x="260" y="512" width="506.63" height="26" fill="#3b82f6"/><text x="774.63" y="530" font-size="13">7,653 (3.2%)</text><text x="10" y="564" font-size="14">信息与通信工程</text><rect x="260" y="546" width="500.61" height="26" fill="#3b82f6"/><text x="768.61" y="564" font-size="13">7,562 (3.1%)</text><text x="10" y="598" font-size="14">哲学</text><rect x="260" y="580" width="497.03" height="26" fill="#3b82f6"/><text x="765.03" y="598" font-size="13">7,508 (3.1%)</text><text x="10" y="632" font-size="14">兵器科学与技术</text><rect x="260" y="614" width="492.40" height="26" fill="#3b82f6"/><text x="760.40" y="632" font-size="13">7,438 (3.1%)</text><text x="10" y="666" font-size="14">机械工程</text><rect x="260" y="648" width="491.67" height="26" fill="#3b82f6"/><text x="759.67" y="666" font-size="13">7,427 (3.1%)</text><text x="10" y="700" font-size="14">药学</text><rect x="260" y="682" width="486.84" height="26" fill="#3b82f6"/><text x="754.84" y="700" font-size="13">7,354 (3.0%)</text><text x="10" y="734" font-size="14">纺织科学与工程</text><rect x="260" y="716" width="483.46" height="26" fill="#3b82f6"/><text x="751.46" y="734" font-size="13">7,303 (3.0%)</text><text x="10" y="768" font-size="14">大气科学</text><rect x="260" y="750" width="459.10" height="26" fill="#3b82f6"/><text x="727.10" y="768" font-size="13">6,935 (2.9%)</text><text x="10" y="802" font-size="14">土木工程</text><rect x="260" y="784" width="458.57" height="26" fill="#3b82f6"/><text x="726.57" y="802" font-size="13">6,927 (2.9%)</text><text x="10" y="836" font-size="14">政治学</text><rect x="260" y="818" width="451.02" height="26" fill="#3b82f6"/><text x="719.02" y="836" font-size="13">6,813 (2.8%)</text><text x="10" y="870" font-size="14">环境科学与工程</text><rect x="260" y="852" width="445.06" height="26" fill="#3b82f6"/><text x="713.06" y="870" font-size="13">6,723 (2.8%)</text><text x="10" y="904" font-size="14">法学</text><rect x="260" y="886" width="428.38" height="26" fill="#3b82f6"/><text x="696.38" y="904" font-size="13">6,471 (2.7%)</text><text x="10" y="938" font-size="14">石油与天然气工程</text><rect x="260" y="920" width="424.48" height="26" fill="#3b82f6"/><text x="692.48" y="938" font-size="13">6,412 (2.7%)</text><text x="10" y="972" font-size="14">农林经济管理</text><rect x="260" y="954" width="421.50" height="26" fill="#3b82f6"/><text x="689.50" y="972" font-size="13">6,367 (2.6%)</text><text x="10" y="1006" font-size="14">历史学</text><rect x="260" y="988" width="415.08" height="26" fill="#3b82f6"/><text x="683.08" y="1006" font-size="13">6,270 (2.6%)</text><text x="10" y="1040" font-size="14">民族学</text><rect x="260" y="1022" width="405.34" height="26" fill="#3b82f6"/><text x="673.34" y="1040" font-size="13">6,123 (2.5%)</text><text x="10" y="1074" font-size="14">图书馆、情报与档案管理</text><rect x="260" y="1056" width="399.58" height="26" fill="#3b82f6"/><text x="667.58" y="1074" font-size="13">6,036 (2.5%)</text>
  </g>
</svg>
